<mxfile host="app.diagrams.net" agent="Mozilla/5.0 (Windows NT 10.0; Win64; x64) AppleWebKit/537.36 (KHTML, like Gecko) Chrome/130.0.0.0 Safari/537.36" version="24.8.3">
  <diagram name="Page-1" id="TO6kB4z5MBMpsq3OqiZG">
    <mxGraphModel dx="1050" dy="557" grid="1" gridSize="10" guides="1" tooltips="1" connect="1" arrows="1" fold="1" page="1" pageScale="1" pageWidth="850" pageHeight="1100" math="0" shadow="0">
      <root>
        <mxCell id="0" />
        <mxCell id="1" parent="0" />
        <mxCell id="8WxK2-NWpz1wvriiN8iH-17" value="" style="rounded=0;whiteSpace=wrap;html=1;" vertex="1" parent="1">
          <mxGeometry x="200" y="20" width="760" height="980" as="geometry" />
        </mxCell>
        <mxCell id="ds1MS7w25QjL1ORueq1j-7" style="edgeStyle=orthogonalEdgeStyle;rounded=0;orthogonalLoop=1;jettySize=auto;html=1;curved=0;" parent="1" edge="1">
          <mxGeometry relative="1" as="geometry">
            <Array as="points">
              <mxPoint x="510.5" y="260" />
              <mxPoint x="510.5" y="260" />
            </Array>
            <mxPoint x="420" y="260" as="sourcePoint" />
            <mxPoint x="660" y="260" as="targetPoint" />
          </mxGeometry>
        </mxCell>
        <mxCell id="ds1MS7w25QjL1ORueq1j-1" value="Frontend" style="shape=umlLifeline;perimeter=lifelinePerimeter;whiteSpace=wrap;html=1;container=1;dropTarget=0;collapsible=0;recursiveResize=0;outlineConnect=0;portConstraint=eastwest;newEdgeStyle={&quot;curved&quot;:0,&quot;rounded&quot;:0};" parent="1" vertex="1">
          <mxGeometry x="370" y="110" width="100" height="870" as="geometry" />
        </mxCell>
        <mxCell id="ds1MS7w25QjL1ORueq1j-14" style="edgeStyle=orthogonalEdgeStyle;rounded=0;orthogonalLoop=1;jettySize=auto;html=1;curved=0;" parent="1" edge="1">
          <mxGeometry relative="1" as="geometry">
            <Array as="points">
              <mxPoint x="730.5" y="430" />
              <mxPoint x="730.5" y="430" />
            </Array>
            <mxPoint x="660" y="430" as="sourcePoint" />
            <mxPoint x="870" y="430" as="targetPoint" />
          </mxGeometry>
        </mxCell>
        <mxCell id="ds1MS7w25QjL1ORueq1j-2" value="Backend" style="shape=umlLifeline;perimeter=lifelinePerimeter;whiteSpace=wrap;html=1;container=1;dropTarget=0;collapsible=0;recursiveResize=0;outlineConnect=0;portConstraint=eastwest;newEdgeStyle={&quot;curved&quot;:0,&quot;rounded&quot;:0};" parent="1" vertex="1">
          <mxGeometry x="610" y="110" width="100" height="870" as="geometry" />
        </mxCell>
        <mxCell id="ds1MS7w25QjL1ORueq1j-3" value="Database" style="shape=umlLifeline;perimeter=lifelinePerimeter;whiteSpace=wrap;html=1;container=1;dropTarget=0;collapsible=0;recursiveResize=0;outlineConnect=0;portConstraint=eastwest;newEdgeStyle={&quot;curved&quot;:0,&quot;rounded&quot;:0};" parent="1" vertex="1">
          <mxGeometry x="820" y="110" width="100" height="860" as="geometry" />
        </mxCell>
        <mxCell id="ds1MS7w25QjL1ORueq1j-4" value="User" style="shape=umlActor;verticalLabelPosition=bottom;verticalAlign=top;html=1;" parent="1" vertex="1">
          <mxGeometry x="230" y="177.5" width="30" height="60" as="geometry" />
        </mxCell>
        <mxCell id="ds1MS7w25QjL1ORueq1j-6" style="rounded=0;orthogonalLoop=1;jettySize=auto;html=1;" parent="1" source="ds1MS7w25QjL1ORueq1j-8" target="ds1MS7w25QjL1ORueq1j-1" edge="1">
          <mxGeometry relative="1" as="geometry">
            <mxPoint x="320" y="225" as="sourcePoint" />
          </mxGeometry>
        </mxCell>
        <mxCell id="ds1MS7w25QjL1ORueq1j-11" style="edgeStyle=orthogonalEdgeStyle;rounded=0;orthogonalLoop=1;jettySize=auto;html=1;curved=0;" parent="1" edge="1">
          <mxGeometry relative="1" as="geometry">
            <mxPoint x="659.5" y="300" as="sourcePoint" />
            <mxPoint x="659.5" y="320" as="targetPoint" />
            <Array as="points">
              <mxPoint x="620" y="290" />
            </Array>
          </mxGeometry>
        </mxCell>
        <mxCell id="ds1MS7w25QjL1ORueq1j-13" value="authenticate token" style="html=1;whiteSpace=wrap;" parent="1" vertex="1">
          <mxGeometry x="500" y="280" width="110" height="40" as="geometry" />
        </mxCell>
        <mxCell id="ds1MS7w25QjL1ORueq1j-20" value="devices" style="html=1;whiteSpace=wrap;" parent="1" vertex="1">
          <mxGeometry x="710" y="450" width="110" height="30" as="geometry" />
        </mxCell>
        <mxCell id="iVlFPtmmlEYchxga2JXQ-9" style="edgeStyle=orthogonalEdgeStyle;rounded=0;orthogonalLoop=1;jettySize=auto;html=1;curved=0;" parent="1" edge="1">
          <mxGeometry relative="1" as="geometry">
            <mxPoint x="870" y="490" as="sourcePoint" />
            <mxPoint x="660" y="490" as="targetPoint" />
            <Array as="points">
              <mxPoint x="830.5" y="490" />
              <mxPoint x="830.5" y="490" />
            </Array>
          </mxGeometry>
        </mxCell>
        <mxCell id="B1_j8ZbPT3PzYgEqwr39-2" value="" style="image;aspect=fixed;html=1;points=[];align=center;fontSize=12;image=img/lib/azure2/general/Browser.svg;" parent="1" vertex="1">
          <mxGeometry x="387.5" y="50" width="65" height="52" as="geometry" />
        </mxCell>
        <mxCell id="B1_j8ZbPT3PzYgEqwr39-3" value="" style="image;aspect=fixed;perimeter=ellipsePerimeter;html=1;align=center;shadow=0;dashed=0;fontColor=#4277BB;labelBackgroundColor=default;fontSize=12;spacingTop=3;image=img/lib/ibm/infrastructure/mobile_backend.svg;" parent="1" vertex="1">
          <mxGeometry x="630" y="40" width="62" height="62" as="geometry" />
        </mxCell>
        <mxCell id="B1_j8ZbPT3PzYgEqwr39-4" value="" style="sketch=0;points=[[0,0,0],[0.25,0,0],[0.5,0,0],[0.75,0,0],[1,0,0],[0,1,0],[0.25,1,0],[0.5,1,0],[0.75,1,0],[1,1,0],[0,0.25,0],[0,0.5,0],[0,0.75,0],[1,0.25,0],[1,0.5,0],[1,0.75,0]];outlineConnect=0;fontColor=#232F3E;fillColor=#C925D1;strokeColor=#ffffff;dashed=0;verticalLabelPosition=bottom;verticalAlign=top;align=center;html=1;fontSize=12;fontStyle=0;aspect=fixed;shape=mxgraph.aws4.resourceIcon;resIcon=mxgraph.aws4.documentdb_with_mongodb_compatibility;" parent="1" vertex="1">
          <mxGeometry x="840.5" y="41.5" width="59" height="59" as="geometry" />
        </mxCell>
        <mxCell id="ds1MS7w25QjL1ORueq1j-8" value="go widget form" style="html=1;whiteSpace=wrap;" parent="1" vertex="1">
          <mxGeometry x="277.5" y="190" width="110" height="35" as="geometry" />
        </mxCell>
        <mxCell id="CODazpXLHY-GL3RTQAhL-22" value="" style="endArrow=classic;html=1;rounded=0;" parent="1" edge="1">
          <mxGeometry width="50" height="50" relative="1" as="geometry">
            <mxPoint x="650.25" y="540" as="sourcePoint" />
            <mxPoint x="425" y="540" as="targetPoint" />
          </mxGeometry>
        </mxCell>
        <mxCell id="CODazpXLHY-GL3RTQAhL-23" value="devices" style="html=1;whiteSpace=wrap;" parent="1" vertex="1">
          <mxGeometry x="500" y="500" width="110" height="30" as="geometry" />
        </mxCell>
        <mxCell id="hvCD2QtILBZ2bcFVSlkV-1" style="edgeStyle=orthogonalEdgeStyle;rounded=0;orthogonalLoop=1;jettySize=auto;html=1;curved=0;" parent="1" edge="1">
          <mxGeometry relative="1" as="geometry">
            <mxPoint x="659.5" y="349.95" as="sourcePoint" />
            <mxPoint x="659.5" y="369.95" as="targetPoint" />
            <Array as="points">
              <mxPoint x="620" y="339.95" />
            </Array>
          </mxGeometry>
        </mxCell>
        <mxCell id="hvCD2QtILBZ2bcFVSlkV-2" value="authorize user" style="html=1;whiteSpace=wrap;" parent="1" vertex="1">
          <mxGeometry x="500" y="340" width="110" height="40" as="geometry" />
        </mxCell>
        <mxCell id="DxxqK-J1NwxKRJ_Hc7Qy-4" style="edgeStyle=orthogonalEdgeStyle;rounded=0;orthogonalLoop=1;jettySize=auto;html=1;curved=0;" parent="1" edge="1">
          <mxGeometry relative="1" as="geometry">
            <mxPoint x="419.5" y="630" as="sourcePoint" />
            <mxPoint x="419.5" y="650" as="targetPoint" />
            <Array as="points">
              <mxPoint x="380" y="620" />
            </Array>
          </mxGeometry>
        </mxCell>
        <mxCell id="DxxqK-J1NwxKRJ_Hc7Qy-5" value="form validation" style="html=1;whiteSpace=wrap;" parent="1" vertex="1">
          <mxGeometry x="260" y="620" width="110" height="35" as="geometry" />
        </mxCell>
        <mxCell id="DxxqK-J1NwxKRJ_Hc7Qy-6" style="edgeStyle=orthogonalEdgeStyle;rounded=0;orthogonalLoop=1;jettySize=auto;html=1;curved=0;" parent="1" edge="1">
          <mxGeometry relative="1" as="geometry">
            <mxPoint x="419.5" y="579.95" as="sourcePoint" />
            <mxPoint x="419.5" y="599.95" as="targetPoint" />
            <Array as="points">
              <mxPoint x="380" y="569.95" />
            </Array>
          </mxGeometry>
        </mxCell>
        <mxCell id="DxxqK-J1NwxKRJ_Hc7Qy-7" value="set devices" style="html=1;whiteSpace=wrap;" parent="1" vertex="1">
          <mxGeometry x="260" y="570" width="110" height="40" as="geometry" />
        </mxCell>
        <mxCell id="8WxK2-NWpz1wvriiN8iH-1" value="request devices (access token)" style="html=1;whiteSpace=wrap;" vertex="1" parent="1">
          <mxGeometry x="480" y="225" width="130" height="30" as="geometry" />
        </mxCell>
        <mxCell id="8WxK2-NWpz1wvriiN8iH-2" value="for admin, find all devices&lt;br&gt;&lt;br&gt;for farmer, finf device by userid" style="html=1;whiteSpace=wrap;" vertex="1" parent="1">
          <mxGeometry x="700" y="340" width="130" height="83.5" as="geometry" />
        </mxCell>
        <mxCell id="8WxK2-NWpz1wvriiN8iH-3" style="edgeStyle=orthogonalEdgeStyle;rounded=0;orthogonalLoop=1;jettySize=auto;html=1;curved=0;" edge="1" parent="1">
          <mxGeometry relative="1" as="geometry">
            <Array as="points">
              <mxPoint x="510.5" y="690" />
              <mxPoint x="510.5" y="690" />
            </Array>
            <mxPoint x="420" y="690" as="sourcePoint" />
            <mxPoint x="660" y="690" as="targetPoint" />
          </mxGeometry>
        </mxCell>
        <mxCell id="8WxK2-NWpz1wvriiN8iH-4" value="access token, widget details" style="html=1;whiteSpace=wrap;" vertex="1" parent="1">
          <mxGeometry x="480" y="655" width="130" height="30" as="geometry" />
        </mxCell>
        <mxCell id="8WxK2-NWpz1wvriiN8iH-5" style="edgeStyle=orthogonalEdgeStyle;rounded=0;orthogonalLoop=1;jettySize=auto;html=1;curved=0;" edge="1" parent="1">
          <mxGeometry relative="1" as="geometry">
            <Array as="points">
              <mxPoint x="730.5" y="800" />
              <mxPoint x="730.5" y="800" />
            </Array>
            <mxPoint x="660" y="800" as="sourcePoint" />
            <mxPoint x="870" y="800" as="targetPoint" />
          </mxGeometry>
        </mxCell>
        <mxCell id="8WxK2-NWpz1wvriiN8iH-7" value="authenticate token" style="html=1;whiteSpace=wrap;" vertex="1" parent="1">
          <mxGeometry x="500" y="720" width="110" height="40" as="geometry" />
        </mxCell>
        <mxCell id="8WxK2-NWpz1wvriiN8iH-9" style="edgeStyle=orthogonalEdgeStyle;rounded=0;orthogonalLoop=1;jettySize=auto;html=1;curved=0;" edge="1" parent="1">
          <mxGeometry relative="1" as="geometry">
            <mxPoint x="659.5" y="740" as="sourcePoint" />
            <mxPoint x="659.5" y="760" as="targetPoint" />
            <Array as="points">
              <mxPoint x="620" y="730" />
            </Array>
          </mxGeometry>
        </mxCell>
        <mxCell id="8WxK2-NWpz1wvriiN8iH-10" value="create widget" style="html=1;whiteSpace=wrap;" vertex="1" parent="1">
          <mxGeometry x="720" y="760" width="110" height="30" as="geometry" />
        </mxCell>
        <mxCell id="8WxK2-NWpz1wvriiN8iH-11" style="edgeStyle=orthogonalEdgeStyle;rounded=0;orthogonalLoop=1;jettySize=auto;html=1;curved=0;" edge="1" parent="1">
          <mxGeometry relative="1" as="geometry">
            <mxPoint x="870" y="860" as="sourcePoint" />
            <mxPoint x="660" y="860" as="targetPoint" />
            <Array as="points">
              <mxPoint x="830.5" y="860" />
              <mxPoint x="830.5" y="860" />
            </Array>
          </mxGeometry>
        </mxCell>
        <mxCell id="8WxK2-NWpz1wvriiN8iH-12" value="response" style="html=1;whiteSpace=wrap;" vertex="1" parent="1">
          <mxGeometry x="720" y="820" width="110" height="30" as="geometry" />
        </mxCell>
        <mxCell id="8WxK2-NWpz1wvriiN8iH-13" value="" style="endArrow=classic;html=1;rounded=0;" edge="1" parent="1">
          <mxGeometry width="50" height="50" relative="1" as="geometry">
            <mxPoint x="657.63" y="910" as="sourcePoint" />
            <mxPoint x="432.38" y="910" as="targetPoint" />
          </mxGeometry>
        </mxCell>
        <mxCell id="8WxK2-NWpz1wvriiN8iH-14" value="response" style="html=1;whiteSpace=wrap;" vertex="1" parent="1">
          <mxGeometry x="490" y="870" width="110" height="30" as="geometry" />
        </mxCell>
        <mxCell id="8WxK2-NWpz1wvriiN8iH-15" style="edgeStyle=orthogonalEdgeStyle;rounded=0;orthogonalLoop=1;jettySize=auto;html=1;curved=0;" edge="1" parent="1">
          <mxGeometry relative="1" as="geometry">
            <mxPoint x="419.5" y="930" as="sourcePoint" />
            <mxPoint x="419.5" y="950" as="targetPoint" />
            <Array as="points">
              <mxPoint x="380" y="920" />
            </Array>
          </mxGeometry>
        </mxCell>
        <mxCell id="8WxK2-NWpz1wvriiN8iH-16" value="show alert" style="html=1;whiteSpace=wrap;" vertex="1" parent="1">
          <mxGeometry x="260" y="920" width="110" height="35" as="geometry" />
        </mxCell>
      </root>
    </mxGraphModel>
  </diagram>
</mxfile>
